<svg width="283" height="283" viewBox="0 0 283 283" fill="none" xmlns="http://www.w3.org/2000/svg">
<path d="M207.723 117.156C206.196 117.156 204.959 115.918 204.959 114.392L204.971 63.9049C204.972 62.3788 206.209 61.1418 207.735 61.1418H207.735C209.262 61.1423 210.499 62.3799 210.498 63.906L210.487 114.393C210.486 115.919 209.249 117.156 207.723 117.156Z" fill="#415A6B"/>
<path d="M207.723 185.065C206.196 185.065 204.959 183.828 204.959 182.301V151.348C204.959 149.821 206.196 148.584 207.723 148.584C209.25 148.584 210.487 149.821 210.487 151.348V182.301C210.487 183.828 209.249 185.065 207.723 185.065Z" fill="#415A6B"/>
<path d="M132.214 80.4936C130.687 80.493 129.45 79.256 129.45 77.7294L129.456 27.2426C129.456 25.7165 130.694 24.4795 132.22 24.4795C132.219 24.4795 132.22 24.4795 132.22 24.4795C133.746 24.4795 134.984 25.7171 134.983 27.2432L134.978 77.7299C134.978 79.2566 133.74 80.4936 132.214 80.4936Z" fill="#415A6B"/>
<path d="M132.214 149.503C130.688 149.503 129.45 148.265 129.45 146.739V115.786C129.45 114.26 130.688 113.022 132.214 113.022C133.741 113.022 134.978 114.26 134.978 115.786V146.739C134.978 148.265 133.741 149.503 132.214 149.503Z" fill="#415A6B"/>
<path d="M132.214 219.119C130.688 219.119 129.45 217.882 129.45 216.356V185.906C129.45 184.379 130.688 183.142 132.214 183.142C133.741 183.142 134.978 184.379 134.978 185.906V216.356C134.978 217.882 133.741 219.119 132.214 219.119Z" fill="#415A6B"/>
<path d="M57.4684 114.945C55.9411 114.945 54.7041 113.707 54.7047 112.181L54.7157 61.694C54.7163 60.1679 55.9533 58.9308 57.4794 58.9308C59.0061 58.9314 60.2436 60.169 60.2431 61.6951L60.232 112.182C60.2315 113.708 58.9939 114.945 57.4684 114.945Z" fill="#415A6B"/>
<path d="M57.4684 183.407C55.9417 183.407 54.7047 182.17 54.7047 180.643V149.69C54.7047 148.163 55.9417 146.926 57.4684 146.926C58.9945 146.926 60.232 148.163 60.232 149.69V180.643C60.232 182.17 58.9939 183.407 57.4684 183.407Z" fill="#415A6B"/>
<path d="M77.1286 231.484C82.6614 231.484 87.1441 235.966 87.1441 241.499C87.1441 247.032 82.6614 251.515 77.1286 251.515C71.5957 251.515 67.113 247.032 67.113 241.499C67.113 235.966 71.5957 231.484 77.1286 231.484Z" fill="#FF7979"/>
<path d="M69.0476 247.303C69.0476 241.77 73.5303 237.288 79.0631 237.288C82.3834 237.288 85.3168 238.909 87.1391 241.396C87.0822 235.911 82.626 231.484 77.1286 231.484C71.5957 231.484 67.113 235.966 67.113 241.499C67.113 243.712 67.8387 245.75 69.0531 247.407C69.0526 247.372 69.0476 247.338 69.0476 247.303Z" fill="#FF5555"/>
<path d="M72.2977 101.762C80.5008 101.762 87.1441 107.986 87.1441 115.652C87.1441 129.549 72.2977 137.458 57.4683 151.348C42.644 137.458 27.8141 129.549 27.8141 115.652C27.8141 107.986 34.458 101.762 42.644 101.762C50.0562 101.762 53.765 105.233 57.4683 112.182C61.1772 105.234 64.886 101.762 72.2977 101.762Z" fill="#FF7979"/>
<path d="M37.4478 118.416C37.4478 110.943 43.7605 104.844 51.6602 104.54C49.3 102.693 46.4667 101.762 42.6435 101.762C34.4569 101.762 27.8136 107.986 27.8136 115.652C27.8136 129.549 42.6435 137.458 57.4678 151.348C58.5462 150.338 59.624 149.363 60.6969 148.411C48.2885 137.804 37.4478 130.297 37.4478 118.416Z" fill="#FF5555"/>
<path d="M222.548 103.973C230.751 103.973 237.394 110.197 237.394 117.863C237.394 131.76 222.548 139.669 207.718 153.559C192.894 139.669 178.064 131.76 178.064 117.863C178.064 110.197 184.708 103.973 192.894 103.973C200.306 103.973 204.015 107.444 207.718 114.393C211.427 107.445 215.136 103.973 222.548 103.973Z" fill="#FF7979"/>
<path d="M187.698 120.627C187.698 113.154 194.01 107.055 201.91 106.751C199.55 104.904 196.717 103.973 192.893 103.973C184.707 103.973 178.063 110.197 178.063 117.863C178.063 131.76 192.893 139.669 207.718 153.559C208.796 152.549 209.874 151.574 210.947 150.622C198.538 140.015 187.698 132.508 187.698 120.627Z" fill="#FF5555"/>
<path d="M222.548 172.182C230.751 172.182 237.394 178.406 237.394 186.073C237.394 199.969 222.548 207.878 207.718 221.769C192.894 207.878 178.064 199.969 178.064 186.073C178.064 178.406 184.708 172.182 192.894 172.182C200.306 172.182 204.015 175.653 207.718 182.602C211.427 175.653 215.136 172.182 222.548 172.182Z" fill="#FF7979"/>
<path d="M187.698 188.837C187.698 181.364 194.01 175.264 201.91 174.961C199.55 173.113 196.717 172.182 192.893 172.182C184.707 172.182 178.063 178.406 178.063 186.073C178.063 199.969 192.893 207.878 207.718 221.769C208.796 220.758 209.874 219.783 210.947 218.831C198.538 208.224 187.698 200.717 187.698 188.837Z" fill="#FF5555"/>
<path d="M147.038 68.3113C155.242 68.3113 161.885 74.5351 161.885 82.2016C161.885 96.0973 147.038 104.007 132.209 117.897C117.385 104.007 102.555 96.0973 102.555 82.2016C102.555 74.5351 109.199 68.3113 117.385 68.3113C124.797 68.3113 128.506 71.782 132.209 78.7304C135.917 71.782 139.626 68.3113 147.038 68.3113Z" fill="#FF7979"/>
<path d="M112.189 84.9652C112.189 77.4923 118.501 71.3934 126.402 71.0894C124.041 69.2416 121.207 68.3113 117.385 68.3113C109.199 68.3113 102.555 74.5351 102.555 82.2016C102.555 96.0973 117.385 104.007 132.209 117.897C133.287 116.887 134.365 115.912 135.439 114.96C123.03 104.353 112.189 96.8451 112.189 84.9652Z" fill="#FF5555"/>
<path d="M147.038 208.935C155.242 208.935 161.885 215.158 161.885 222.825C161.885 236.721 147.038 244.63 132.209 258.52C117.385 244.63 102.555 236.721 102.555 222.825C102.555 215.158 109.199 208.935 117.385 208.935C124.797 208.935 128.506 212.405 132.209 219.354C135.917 212.405 139.626 208.935 147.038 208.935Z" fill="#FF7979"/>
<path d="M112.189 225.589C112.189 218.116 118.501 212.017 126.402 211.713C124.041 209.865 121.207 208.935 117.385 208.935C109.199 208.935 102.555 215.158 102.555 222.825C102.555 236.721 117.385 244.63 132.209 258.52C133.287 257.511 134.365 256.535 135.439 255.584C123.03 244.976 112.189 237.468 112.189 225.589Z" fill="#FF5555"/>
<path d="M72.2977 173.195C80.5008 173.195 87.1441 179.419 87.1441 187.086C87.1441 200.981 72.2977 208.891 57.4683 222.781C42.644 208.891 27.8141 200.981 27.8141 187.086C27.8141 179.419 34.458 173.195 42.644 173.195C50.0562 173.195 53.765 176.666 57.4683 183.615C61.1772 176.666 64.886 173.195 72.2977 173.195Z" fill="#FF7979"/>
<path d="M37.4478 189.849C37.4478 182.376 43.7605 176.277 51.6602 175.974C49.3 174.126 46.4667 173.195 42.6435 173.195C34.4569 173.195 27.8136 179.419 27.8136 187.086C27.8136 200.981 42.6435 208.891 57.4678 222.781C58.5462 221.771 59.624 220.796 60.6969 219.844C48.2885 209.237 37.4478 201.729 37.4478 189.849Z" fill="#FF5555"/>
<path d="M82.2878 41.3655C87.8206 41.3655 92.3033 45.8477 92.3033 51.3805C92.3033 56.914 87.8206 61.3961 82.2878 61.3961C76.7544 61.3961 72.2722 56.914 72.2722 51.3805C72.2722 45.8477 76.7544 41.3655 82.2878 41.3655Z" fill="#FF7979"/>
<path d="M74.2068 57.1842C74.2068 51.6514 78.6889 47.1693 84.2223 47.1693C87.5426 47.1693 90.4754 48.7904 92.2978 51.2772C92.2414 45.7929 87.7853 41.3655 82.2878 41.3655C76.7544 41.3655 72.2722 45.8477 72.2722 51.3805C72.2722 53.5931 72.998 55.6311 74.2123 57.2882C74.2118 57.2533 74.2068 57.2196 74.2068 57.1842Z" fill="#FF5555"/>
<path d="M182.303 31.3505C187.836 31.3505 192.319 35.8326 192.319 41.3655C192.319 46.8989 187.836 51.3811 182.303 51.3811C176.77 51.3811 172.288 46.8989 172.288 41.3655C172.288 35.8326 176.771 31.3505 182.303 31.3505Z" fill="#FF7979"/>
<path d="M174.222 47.1692C174.222 41.6364 178.705 37.1542 184.237 37.1542C187.558 37.1542 190.491 38.7754 192.313 41.2622C192.257 35.7779 187.801 31.3505 182.303 31.3505C176.77 31.3505 172.288 35.8326 172.288 41.3655C172.288 43.5781 173.014 45.616 174.228 47.2731C174.227 47.2383 174.222 47.2041 174.222 47.1692Z" fill="#FF5555"/>
<path d="M252.423 254.278H187.311C185.784 254.278 184.547 253.041 184.547 251.515C184.547 249.988 185.784 248.751 187.311 248.751H252.423C253.949 248.751 255.186 249.988 255.186 251.515C255.186 253.041 253.949 254.278 252.423 254.278Z" fill="#FF7979"/>
<path d="M187.311 239.255H172.287C170.761 239.255 169.524 238.018 169.524 236.491C169.524 234.965 170.761 233.728 172.287 233.728H187.311C188.837 233.728 190.074 234.965 190.074 236.491C190.074 238.018 188.837 239.255 187.311 239.255Z" fill="#415A6B"/>
<path d="M147.038 139.847C155.242 139.847 161.885 146.071 161.885 153.738C161.885 167.633 147.038 175.543 132.209 189.433C117.385 175.543 102.555 167.633 102.555 153.738C102.555 146.071 109.199 139.847 117.385 139.847C124.797 139.847 128.506 143.318 132.209 150.266C135.917 143.318 139.626 139.847 147.038 139.847Z" fill="#FF7979"/>
<path d="M112.189 156.501C112.189 149.028 118.501 142.929 126.402 142.625C124.041 140.778 121.207 139.847 117.385 139.847C109.199 139.847 102.555 146.071 102.555 153.738C102.555 167.633 117.385 175.543 132.209 189.433C133.287 188.423 134.365 187.448 135.439 186.496C123.03 175.889 112.189 168.381 112.189 156.501Z" fill="#FF5555"/>
</svg>
